<svg width="774" height="435" viewBox="0 0 774 435" fill="none" xmlns="http://www.w3.org/2000/svg">
<path d="M46.656 191.008H73.152V214.048H47.424V292H17.472V214.048H1.536V191.008H17.472V186.4C17.472 174.624 20.928 165.28 27.84 158.368C34.88 151.456 44.736 148 57.408 148C61.888 148 66.112 148.512 70.08 149.536C74.176 150.432 77.568 151.776 80.256 153.568L72.384 175.264C68.928 172.832 64.896 171.616 60.288 171.616C51.2 171.616 46.656 176.608 46.656 186.592V191.008ZM120.906 191.008H147.402V214.048H121.674V292H91.722V214.048H75.786V191.008H91.722V186.4C91.722 174.624 95.178 165.28 102.09 158.368C109.13 151.456 118.986 148 131.658 148C136.138 148 140.362 148.512 144.33 149.536C148.426 150.432 151.818 151.776 154.506 153.568L146.634 175.264C143.178 172.832 139.146 171.616 134.538 171.616C125.45 171.616 120.906 176.608 120.906 186.592V191.008ZM195.156 191.008H221.652V214.048H195.924V292H165.972V214.048H150.036V191.008H165.972V186.4C165.972 174.624 169.428 165.28 176.34 158.368C183.38 151.456 193.236 148 205.908 148C210.388 148 214.612 148.512 218.58 149.536C222.676 150.432 226.068 151.776 228.756 153.568L220.884 175.264C217.428 172.832 213.396 171.616 208.788 171.616C199.7 171.616 195.156 176.608 195.156 186.592V191.008ZM340.478 149.536V292H311.87V280.096C304.446 289.056 293.694 293.536 279.614 293.536C269.886 293.536 261.054 291.36 253.118 287.008C245.31 282.656 239.166 276.448 234.686 268.384C230.206 260.32 227.966 250.976 227.966 240.352C227.966 229.728 230.206 220.384 234.686 212.32C239.166 204.256 245.31 198.048 253.118 193.696C261.054 189.344 269.886 187.168 279.614 187.168C292.798 187.168 303.102 191.328 310.526 199.648V149.536H340.478ZM284.798 268.96C292.35 268.96 298.622 266.4 303.614 261.28C308.606 256.032 311.102 249.056 311.102 240.352C311.102 231.648 308.606 224.736 303.614 219.616C298.622 214.368 292.35 211.744 284.798 211.744C277.118 211.744 270.782 214.368 265.79 219.616C260.798 224.736 258.302 231.648 258.302 240.352C258.302 249.056 260.798 256.032 265.79 261.28C270.782 266.4 277.118 268.96 284.798 268.96ZM402.951 293.536C394.375 293.536 385.991 292.512 377.799 290.464C369.607 288.288 363.079 285.6 358.215 282.4L368.199 260.896C372.807 263.84 378.375 266.272 384.903 268.192C391.431 269.984 397.831 270.88 404.103 270.88C416.775 270.88 423.111 267.744 423.111 261.472C423.111 258.528 421.383 256.416 417.927 255.136C414.471 253.856 409.159 252.768 401.991 251.872C393.543 250.592 386.567 249.12 381.063 247.456C375.559 245.792 370.759 242.848 366.663 238.624C362.695 234.4 360.711 228.384 360.711 220.576C360.711 214.048 362.567 208.288 366.279 203.296C370.119 198.176 375.623 194.208 382.791 191.392C390.087 188.576 398.663 187.168 408.519 187.168C415.815 187.168 423.047 188 430.215 189.664C437.511 191.2 443.527 193.376 448.263 196.192L438.279 217.504C429.191 212.384 419.271 209.824 408.519 209.824C402.119 209.824 397.319 210.72 394.119 212.512C390.919 214.304 389.319 216.608 389.319 219.424C389.319 222.624 391.047 224.864 394.503 226.144C397.959 227.424 403.463 228.64 411.015 229.792C419.463 231.2 426.375 232.736 431.751 234.4C437.127 235.936 441.799 238.816 445.767 243.04C449.735 247.264 451.719 253.152 451.719 260.704C451.719 267.104 449.799 272.8 445.959 277.792C442.119 282.784 436.487 286.688 429.063 289.504C421.767 292.192 413.063 293.536 402.951 293.536ZM576.759 188.704V274.72C576.759 293.664 571.831 307.744 561.975 316.96C552.119 326.176 537.719 330.784 518.775 330.784C508.791 330.784 499.319 329.568 490.359 327.136C481.399 324.704 473.975 321.184 468.087 316.576L479.991 295.072C484.343 298.656 489.847 301.472 496.503 303.52C503.159 305.696 509.815 306.784 516.471 306.784C526.839 306.784 534.455 304.416 539.319 299.68C544.311 295.072 546.807 288.032 546.807 278.56V274.144C538.999 282.72 528.119 287.008 514.167 287.008C504.695 287.008 495.991 284.96 488.055 280.864C480.247 276.64 474.039 270.752 469.431 263.2C464.823 255.648 462.519 246.944 462.519 237.088C462.519 227.232 464.823 218.528 469.431 210.976C474.039 203.424 480.247 197.6 488.055 193.504C495.991 189.28 504.695 187.168 514.167 187.168C529.143 187.168 540.535 192.096 548.343 201.952V188.704H576.759ZM520.119 262.432C528.055 262.432 534.519 260.128 539.511 255.52C544.631 250.784 547.191 244.64 547.191 237.088C547.191 229.536 544.631 223.456 539.511 218.848C534.519 214.112 528.055 211.744 520.119 211.744C512.183 211.744 505.655 214.112 500.535 218.848C495.415 223.456 492.855 229.536 492.855 237.088C492.855 244.64 495.415 250.784 500.535 255.52C505.655 260.128 512.183 262.432 520.119 262.432ZM667.421 187.168C680.221 187.168 690.525 191.008 698.333 198.688C706.269 206.368 710.237 217.76 710.237 232.864V292H680.285V237.472C680.285 229.28 678.493 223.2 674.909 219.232C671.325 215.136 666.141 213.088 659.357 213.088C651.805 213.088 645.789 215.456 641.309 220.192C636.829 224.8 634.589 231.712 634.589 240.928V292H604.637V188.704H633.245V200.8C637.213 196.448 642.141 193.12 648.029 190.816C653.917 188.384 660.381 187.168 667.421 187.168ZM748.715 293.536C743.467 293.536 739.051 291.744 735.467 288.16C731.883 284.576 730.091 280.096 730.091 274.72C730.091 269.216 731.883 264.8 735.467 261.472C739.051 258.016 743.467 256.288 748.715 256.288C753.963 256.288 758.379 258.016 761.963 261.472C765.547 264.8 767.339 269.216 767.339 274.72C767.339 280.096 765.547 284.576 761.963 288.16C758.379 291.744 753.963 293.536 748.715 293.536Z" fill="white"/>
<rect x="17" width="30" height="435" fill="white"/>
<rect x="422" width="30" height="435" fill="white"/>
<rect x="452" y="405" width="30" height="435" transform="rotate(90 452 405)" fill="white"/>
<rect x="452" width="30" height="435" transform="rotate(90 452 0)" fill="white"/>
<rect x="710" y="347" width="30" height="247" transform="rotate(90 710 347)" fill="white"/>
</svg>
